<?xml version="1.0" encoding="utf-8"?>
<!-- Generator: Adobe Illustrator 16.0.0, SVG Export Plug-In . SVG Version: 6.00 Build 0)  -->
<!DOCTYPE svg PUBLIC "-//W3C//DTD SVG 1.1//EN" "http://www.w3.org/Graphics/SVG/1.1/DTD/svg11.dtd">
<svg version="1.1" id="Layer_1" xmlns="http://www.w3.org/2000/svg" xmlns:xlink="http://www.w3.org/1999/xlink" x="0px" y="0px"
	 width="497.52px" height="48.336px" viewBox="0 0 497.52 48.336" enable-background="new 0 0 497.52 48.336" xml:space="preserve">
<g id="White">
	<g id="Layer_1_copy_2">
		<polygon fill="#FFFFFF" points="474.061,9.571 461.6,9.571 461.6,0.756 497.27,0.756 497.27,9.571 484.596,9.571 484.596,47.171 
			474.061,47.171 		"/>
		<path fill="#FFFFFF" d="M458.713,45.864c-1.926,0.965-6.266,2-11.912,2c-16.047,0-24.309-9.988-24.309-23.21
			C422.492,8.813,433.789,0,447.832,0c5.443,0,9.574,1.099,11.432,2.064l-2.135,8.336c-2.129-0.897-5.092-1.725-8.813-1.725
			c-8.33,0-14.804,5.027-14.804,15.357c0,9.297,5.504,15.151,14.869,15.151c3.17,0,6.683-0.688,8.746-1.518L458.713,45.864z"/>
		<polygon fill="#FFFFFF" points="415.441,27.544 398.363,27.544 398.363,38.563 417.439,38.563 417.439,47.173 387.824,47.173 
			387.824,0.756 416.477,0.756 416.477,9.367 398.363,9.367 398.363,19.003 415.441,19.003 		"/>
		<path fill="#FFFFFF" d="M368.602,0.755h10.472v29.341c0,13.221-6.341,17.836-16.528,17.836c-2.409,0-5.575-0.414-7.645-1.103
			l1.175-8.474c1.444,0.483,3.303,0.83,5.368,0.83c4.406,0,7.158-2,7.158-9.229V0.755z"/>
		<path fill="#FFFFFF" d="M318.238,1.375c3.377-0.548,8.402-0.964,13.98-0.964c6.885,0,11.706,1.034,15.012,3.651
			c2.758,2.204,4.272,5.441,4.272,9.711c0,5.922-4.207,9.986-8.196,11.43v0.207c3.235,1.309,5.026,4.41,6.198,8.679
			c1.445,5.235,2.894,11.295,3.787,13.082h-10.746c-0.752-1.31-1.854-5.094-3.235-10.812c-1.238-5.782-3.236-7.368-7.502-7.437
			h-3.17V47.17h-10.4V1.375L318.238,1.375z M328.641,21.346h4.133c5.233,0,8.328-2.616,8.328-6.678c0-4.269-2.894-6.404-7.711-6.472
			c-2.552,0-3.996,0.204-4.75,0.342V21.346z"/>
		<polygon fill="#FFFFFF" points="309.061,27.544 291.984,27.544 291.984,38.563 311.059,38.563 311.059,47.173 281.445,47.173 
			281.445,0.756 310.098,0.756 310.098,9.367 291.984,9.367 291.984,19.003 309.061,19.003 		"/>
		<polygon fill="#FFFFFF" points="252.648,9.571 240.187,9.571 240.187,0.756 275.855,0.756 275.855,9.571 263.186,9.571 
			263.186,47.171 252.648,47.171 		"/>
		<path fill="#FFFFFF" d="M196.146,47.173V0.755h12.261l9.642,17.012c2.752,4.891,5.511,10.672,7.578,15.908h0.201
			c-0.687-6.131-0.895-12.395-0.895-19.354V0.755h9.642v46.418H223.56l-9.917-17.907c-2.752-4.956-5.787-10.945-8.056-16.389
			l-0.208,0.07c0.276,6.129,0.409,12.669,0.409,20.246v13.979H196.146z"/>
		<rect x="176.513" y="0.755" fill="#FFFFFF" width="10.537" height="46.418"/>
	</g>
	<g id="Layer_3_copy_2">
		<path fill="#FFFFFF" d="M23.837,25.868l1.522,4.472c0.824,2.42,1.56,4.354,1.656,4.354c0.001,0,0.003,0,0.004-0.004
			c0.104-0.092,3.086-8.746,3.086-8.746h5.775l-6.968,20.304h-4.014c0,0-4.286-12.375-4.268-12.422l-4.473,12.268h-3.975
			l-6.88-20.224l5.748,0.004c0,0,3.15,8.926,3.191,8.926l0,0l3.141-8.93L23.837,25.868 M3.34,24.462l0.632,1.858l6.88,20.224
			l0.324,0.952h5.963l0.337-0.923l3.105-8.519c0.268,0.777,0.558,1.617,0.847,2.455c0.713,2.065,1.426,4.131,2.141,6.195
			l0.329,0.945h6.017l0.326-0.947l6.969-20.307l0.639-1.861h-8.747l-0.326,0.947c-0.598,1.74-1.201,3.478-1.808,5.213
			c-0.094-0.27-0.187-0.539-0.278-0.811l-1.523-4.472l-0.324-0.951h-8.455l-0.33,0.938l-1.836,5.218
			c-0.617-1.738-1.233-3.478-1.846-5.216l-0.332-0.937l-0.994-0.001l-5.748-0.003H3.34L3.34,24.462z M112.794,25.79l-0.014,5.321
			c0,0-5.732-0.019-8.646-0.019c-0.97,0-1.628,0.003-1.66,0.009c-0.501,0.09-0.821,1.159-0.679,1.627
			c0.07,0.238,0.596,1.013,1.165,1.725c0.567,0.711,1.5,1.875,2.069,2.586c1.46,1.824,1.661,2.184,1.796,3.229
			c0.219,1.7-0.585,3.541-2.078,4.754c-1.496,1.219-1.431,1.228-12.536,1.228h-0.487c-6.754-0.003-10.326-0.058-10.847-0.174
			c-0.924-0.209-2.396-1.41-6.286-5.144c-1.398-1.341-2.688-2.515-2.754-2.516c-0.002,0-0.003,0.003-0.003,0.004l-0.046,7.828
			l-6.305-0.027l-0.039-20.193h14.061c4.238,0.152,7.105,4.377,6.534,7.067c-0.129,0.611-0.459,1.497-0.733,1.968
			c-0.565,0.965-2,2.207-3.164,2.736c-0.43,0.195-0.78,0.424-0.78,0.502c0,0.301,1.414,1.695,1.944,1.917
			c0.454,0.189,1.773,0.232,7.589,0.232h1.863c5.847,0,5.551-0.043,6.003-1.009c0.316-0.672,0.076-1.075-2.149-3.582
			c-2.818-2.805-2.524-4.147-2.542-5.14c-0.041-1.188,0.896-4.931,5.762-4.931L112.794,25.79 M75.023,35.119
			c2.7,0,3.248-0.042,3.822-0.292c1.938-0.843,2.042-3.332,0.183-4.438c-0.407-0.24-0.931-0.281-3.856-0.297l-3.385-0.019
			c0.027,0.026-0.011,4.843-0.011,4.843S72.623,35.119,75.023,35.119 M114.201,24.385H99.833c-2.816,0-4.482,1.11-5.383,2.043
			c-1.465,1.518-1.811,3.428-1.784,4.327c0.001,0.074,0.001,0.151,0,0.231c-0.013,1.463,0.202,3.119,2.926,5.839
			c0.538,0.606,1.438,1.623,1.779,2.127c-0.744,0.092-2.631,0.092-4.613,0.092h-0.841h-1.021c-3.495,0-6.443-0.01-7.047-0.129
			c-0.085-0.056-0.204-0.151-0.333-0.265c1.208-0.742,2.429-1.896,3.005-2.883c0.349-0.598,0.732-1.621,0.894-2.381
			c0.358-1.691-0.232-3.73-1.581-5.457c-1.573-2.016-3.861-3.221-6.277-3.308l-0.026-0.001H64.037l0.003,1.408l0.04,20.193
			l0.003,1.396l1.396,0.007l6.305,0.025l1.403,0.008l0.007-1.402l0.028-4.689c0.129,0.121,0.261,0.248,0.398,0.379
			c4.255,4.082,5.683,5.214,6.948,5.5c0.348,0.076,0.923,0.205,11.156,0.207h0.487c5.541,0,8.321,0,9.976-0.158
			c1.894-0.184,2.505-0.613,3.417-1.357l0.031-0.023c1.876-1.526,2.866-3.834,2.584-6.023c-0.184-1.424-0.561-2.017-2.094-3.929
			l-0.455-0.568c-0.538-0.672-1.075-1.343-1.613-2.016c-0.347-0.437-0.622-0.823-0.787-1.078c0.217,0,0.499,0,0.864,0
			c2.879,0,8.586,0.019,8.642,0.019l1.407,0.006l0.003-1.406l0.014-5.323L114.201,24.385L114.201,24.385z M73.189,33.662
			l0.006-1.151c0.001-0.352,0.004-0.702,0.004-1.024l1.964,0.011c1.129,0.006,2.828,0.014,3.16,0.11
			c0.422,0.256,0.658,0.651,0.632,1.063c-0.014,0.223-0.119,0.63-0.67,0.869c-0.308,0.134-0.796,0.176-3.261,0.176
			C74.243,33.715,73.64,33.691,73.189,33.662L73.189,33.662z M52.671,25.706l7.076,20.358l-5.766,0.026l-0.957-3.058L42.716,42.95
			l-0.91,3.062l-5.708-0.06l6.987-20.236L52.671,25.706 M48.035,28.689c-0.014,0.061-0.903,2.5-1.795,4.938
			c-0.898,2.459-1.801,4.918-1.813,4.938l0,0c0.023-0.008,3.216-0.015,5.262-0.015c0.957,0,1.664,0.002,1.678,0.005v0.002v-0.002
			l0,0C51.331,38.462,48.045,28.811,48.035,28.689L48.035,28.689L48.035,28.689 M53.67,24.301l-1,0.001l-9.587,0.009l-1.001,0.002
			l-0.326,0.945L34.77,45.495l-0.636,1.843l1.949,0.021l5.708,0.06l1.06,0.011l0.302-1.016l0.609-2.048l8.229,0.063l0.65,2.082
			l0.31,0.99l1.038-0.004l5.765-0.027l1.966-0.008l-0.646-1.857l-7.077-20.357L53.67,24.301L53.67,24.301z M46.449,37.146
			c0.265-0.726,0.624-1.705,1.11-3.035l0.42-1.149l0.381,1.122c0.113,0.335,0.612,1.805,1.039,3.061
			C48.128,37.145,47.171,37.145,46.449,37.146z M55.056,1.407V6.43H44.997v15.363H39V6.418L27.258,6.451
			c-1.416,0-1.605,1.128-1.605,1.56c0,0.53,0.346,1.062,2.246,3.467c1.233,1.563,2.367,3.123,2.516,3.464
			c0.814,1.876-0.239,4.798-2.158,5.984c-1.369,0.846-1.134,0.867-11.294,0.867H4.377v-5.644H21.57l0.507-0.353
			c0.342-0.238,0.541-0.567,0.616-1.018c0.105-0.646,0.051-0.73-2.072-3.122c-2.51-2.827-2.774-3.344-2.645-5.149
			c0.147-2.06,1.984-5.053,5.194-5.053L55.056,1.407 M56.462,0l-1.407,0.002L23.169,0.051c-1.836,0-3.542,0.793-4.802,2.233
			c-1.021,1.168-1.69,2.71-1.792,4.123c-0.171,2.373,0.375,3.23,2.996,6.183c0.76,0.856,1.483,1.671,1.725,2.019
			c-0.002,0.009-0.006,0.018-0.01,0.026c-0.003,0.003-0.006,0.006-0.013,0.009l-0.144,0.102H2.972v8.453h13.989
			c5.01,0,7.482-0.005,8.938-0.112c1.666-0.122,2.198-0.407,2.994-0.902l0.1-0.063c2.504-1.549,3.795-5.238,2.708-7.74
			c-0.335-0.766-2.46-3.469-2.701-3.773c-0.667-0.845-1.766-2.237-1.94-2.641c0.003-0.034,0.012-0.069,0.02-0.093
			c0.029-0.008,0.084-0.018,0.176-0.018l10.337-0.029v15.37H46.4V7.835h10.06V0H56.462z M71.399,1.57l7.056,20.412l-5.754-0.032
			l-0.935-3.058l-10.263-0.046l-0.917,2.946h-5.86L61.705,1.57H71.399 M63.179,14.5l6.989-0.009l0,0
			c0.023,0-3.397-10.046-3.419-10.053C66.725,4.438,63.1,14.5,63.179,14.5 M72.4,0.165H60.704l-0.326,0.947l-6.979,20.222
			l-0.643,1.864h8.866l0.307-0.987l0.608-1.955l8.189,0.037l0.632,2.068l0.303,0.988l1.033,0.006l5.756,0.031l1.984,0.011
			l-0.648-1.875L72.729,1.111L72.4,0.165z M65.13,13.093c0.523-1.483,1.051-2.966,1.583-4.445c0.505,1.479,1.008,2.96,1.508,4.441
			L65.13,13.093L65.13,13.093z M91.217,1.57c4.553,0,7.712,0.065,8.319,0.171c1.405,0.244,2.674,0.993,3.625,2.146
			c0.997,1.204,1.225,1.781,1.354,3.432c0.187,2.331-0.922,4.342-3.108,5.646c-0.638,0.382-1.292,0.753-1.456,0.826
			c-0.25,0.114-0.218,0.224,0.232,0.75c0.289,0.34,0.792,0.822,1.115,1.073l0.589,0.459l10.903,0.156l0.106,5.564h-6.684
			c-5.171,0-6.824-0.048-7.31-0.211c-0.724-0.246-2.47-1.726-6.017-5.101l-2.534-2.41l0.028,7.722h-6.506V1.57H91.217
			 M90.259,10.662h3.455c3.362,0,3.466-0.011,3.946-0.37c0.857-0.643,1.161-1.305,1.07-2.321c-0.094-1.05-0.498-1.596-1.51-2.034
			c-0.571-0.249-1.122-0.29-3.815-0.29h-3.146V10.662 M91.217,0.165h-8.745v23.032h9.319l-0.005-1.409l-0.015-4.429l0.148,0.14
			c4.387,4.174,5.681,5.124,6.535,5.413c0.655,0.222,1.753,0.285,7.761,0.285h8.116l-0.026-1.432l-0.108-5.564l-0.025-1.357
			l-1.358-0.02l-10.432-0.149l-0.219-0.171c-0.069-0.055-0.154-0.126-0.244-0.207l0.212-0.126c2.635-1.572,4.015-4.11,3.787-6.965
			c-0.151-1.924-0.495-2.79-1.671-4.214c-1.157-1.4-2.744-2.336-4.469-2.635C98.818,0.19,94.003,0.165,91.217,0.165L91.217,0.165z
			 M91.664,7.052h1.741c2.463,0,2.951,0.04,3.252,0.172c0.571,0.247,0.629,0.368,0.674,0.871c0.044,0.5-0.017,0.701-0.514,1.073
			l-0.039,0.029c-0.326,0.061-1.542,0.061-3.063,0.061h-2.05L91.664,7.052L91.664,7.052z"/>
		<g display="none">
			<g display="inline">
				<defs>
					<rect id="SVGID_1_" x="-5.754" y="-2" width="30.25" height="57.537"/>
				</defs>
				<clipPath id="SVGID_2_">
					<use xlink:href="#SVGID_1_"  overflow="visible"/>
				</clipPath>
				<path clip-path="url(#SVGID_2_)" fill="#FFFFFF" d="M24.035,0c0.524,0.2,1.013,1.051,1.352,1.475
					c0.997,1.118,1.993,2.238,2.99,3.357c-0.721,1.865-2.025,3.27-2.088,5.938c0.026-0.015,0.054-0.027,0.082-0.041
					c0.55-1.317,2.804-2.995,4.094-3.646c0.928,1.039,1.856,2.076,2.784,3.114c-3.702,1.101-5.209,4.873-5.937,9.049
					c-0.703,4.03,1.756,9.559,5.486,8.967c5.85-0.925,10.357-8.409,8.19-15.641c-0.74-2.472-1.855-4.554-3.193-6.43
					c-0.573-0.709-1.146-1.421-1.72-2.129c0.067-0.015,0.137-0.028,0.206-0.041c1.451,0.682,2.603,2.021,3.807,2.988
					c5.373,4.323,9.552,14.149,6.717,23.792c-2.356,8.012-6.972,13.334-14.66,16.01c-2.047,0.715-3.969,0.813-6.511,1.188
					c-0.901,0.015-1.802,0.028-2.703,0.042c-2.208-0.333-4.128-0.524-5.978-1.106C9.627,44.588,3.957,38.607,1.678,31.245
					c-0.396-1.275-0.618-2.636-0.86-4.056c-1.105-6.481,1.518-12.832,4.013-16.378c0.693-0.987,1.551-1.824,2.292-2.745
					c0.76-0.939,3.782-3.805,4.955-4.094c0.013,0.026,0.027,0.054,0.041,0.082c-0.546,0.708-1.092,1.42-1.639,2.128
					C9.29,7.874,8.253,9.934,7.573,12.08c-2.291,7.231,1.192,14.888,7.371,16.051c4.289,0.809,6.804-4.901,5.978-9.254
					c-0.821-4.325-2.474-7.079-6.019-8.681c0.027-0.027,0.054-0.056,0.082-0.083c0.914-1.009,1.828-2.02,2.743-3.031
					c1.281,0.617,2.514,1.562,3.358,2.622c0.259,0.342,0.519,0.683,0.778,1.024c0.007-1.804-0.65-3.475-1.352-4.67
					c-0.224-0.382-0.636-0.756-0.736-1.228C21.197,3.222,22.617,1.61,24.035,0z"/>
			</g>
		</g>
	</g>
</g>
<g>
	<path fill="#FFFFFF" d="M165.209,34.024c-0.026-0.03-0.056-0.058-0.086-0.083l-0.294-0.246l0.003-0.007
		c-1.001-0.8-1.991-1.641-2.958-2.501c-0.923,2.235-2.271,4.248-3.954,5.931c1.115,0.916,2.175,1.688,3.303,2.396l0.191,0.099
		c1.546-1.628,2.851-3.484,3.858-5.517L165.209,34.024z"/>
	<path fill="#FFFFFF" d="M139.181,6.4l0.159,0.546c1.112-0.366,2.271-0.625,3.467-0.771l-0.173-0.349
		c-0.613-1.343-1.143-2.669-1.599-3.966c-0.92,0.165-1.823,0.379-2.701,0.651C138.57,3.807,138.85,5.113,139.181,6.4"/>
	<path fill="#FFFFFF" d="M145.769,5.416l0.254,0.659c9.599,0.515,17.229,8.439,17.229,18.166c0,1.493-0.2,2.937-0.538,4.325
		l0.015,0.013c1.018,0.794,2.085,1.556,3.175,2.263l0.002-0.013l0.563,0.356c0.741-2.235,1.147-4.622,1.147-7.105
		c0-12.472-10.109-22.581-22.58-22.581c-0.086,0-0.17,0.006-0.256,0.006C145.01,2.778,145.331,4.088,145.769,5.416"/>
	<path fill="#FFFFFF" d="M131.33,11.347l0.359,0.526c1.506-1.625,3.3-2.969,5.307-3.959l-0.225-0.656
		c-0.408-1.263-0.774-2.506-1.106-3.722c-2.535,1.159-4.819,2.769-6.747,4.733C129.747,9.255,130.559,10.283,131.33,11.347"/>
	<path fill="#FFFFFF" d="M157.472,42.827c-0.501-0.603-0.995-1.119-1.518-1.665c-0.44-0.46-0.882-0.924-1.335-1.449
		c-2.787,1.729-6.062,2.745-9.583,2.745c-0.251,0-0.496-0.027-0.746-0.037c0.221,1.414,0.44,2.856,0.539,4.234
		c0.069,0.001,0.138,0.005,0.208,0.005c4.618,0,8.91-1.389,12.486-3.767L157.472,42.827z"/>
	<path fill="#FFFFFF" d="M141.408,46.203l0.065,0.007c0.108-1.232,0.122-2.453,0.049-3.91l-0.02-0.19
		c-8.369-1.646-14.685-9.017-14.685-17.867c0-3.673,1.096-7.085,2.965-9.946l-0.563-0.656c-0.847-0.899-1.753-1.734-2.68-2.51
		c-2.572,3.667-4.087,8.131-4.087,12.95c0,11.233,8.205,20.547,18.948,22.286L141.408,46.203z"/>
	<path fill="#FFFFFF" d="M143.752,18.469c0.646,1.307,1.344,2.608,2.07,3.869c2.705,4.67,5.944,8.9,9.363,12.235l0.261,0.235
		c1.739-1.685,3.071-3.783,3.832-6.142l-0.475-0.448c-1.519-1.497-3.001-3.075-4.414-4.696c-0.596-0.678-1.172-1.364-1.736-2.054
		c-3.297-4.021-6.103-8.175-8.335-12.344c-1.421,0.068-2.79,0.327-4.081,0.763C141.178,12.759,142.358,15.648,143.752,18.469"/>
	<path fill="#FFFFFF" d="M152.366,36.856c-3.267-4.196-6.289-8.928-8.988-14.071c-0.384-0.733-0.764-1.476-1.137-2.228
		c-1.593-3.227-3-6.498-4.196-9.732c-1.736,0.919-3.271,2.165-4.518,3.662c1.347,2.118,2.618,4.361,3.782,6.69
		c0.627,1.256,1.216,2.514,1.749,3.739c2.028,4.629,3.562,9.285,4.56,13.839l0.04,0.209c0.455,0.041,0.913,0.069,1.377,0.069
		c2.723,0,5.269-0.738,7.469-2.008L152.366,36.856z"/>
	<path fill="#FFFFFF" d="M154.469,20.459l0.155,0.184c0.215,0.256,0.431,0.513,0.655,0.767c1.411,1.618,2.921,3.16,4.493,4.584
		l0.086,0.073c0.089-0.657,0.15-1.323,0.15-2.005c0-7.486-5.5-13.67-12.676-14.778C149.063,13.064,151.522,16.925,154.469,20.459"/>
	<path fill="#FFFFFF" d="M137.62,26.564c-0.843-1.929-1.801-3.8-2.847-5.565c-0.879-1.48-1.835-2.878-2.829-4.197
		c-1.195,2.151-1.881,4.623-1.881,7.259c0,6.921,4.701,12.728,11.08,14.444C140.557,34.633,139.342,30.501,137.62,26.564"/>
</g>
</svg>
